<svg width="88" height="36" viewBox="0 0 88 36" fill="none" xmlns="http://www.w3.org/2000/svg">
<g clip-path="url(#clip0_0_249)">
<path d="M17.9999 0C8.05863 0 -0.00012207 8.05875 -0.00012207 18C-0.00012207 27.9412 8.05863 36 17.9999 36C27.9411 36 35.9999 27.9412 35.9999 18C35.9999 8.05875 27.9411 0 17.9999 0ZM24.9224 20.3081C24.9224 20.3081 26.5143 21.8794 26.9061 22.6087C26.9174 22.6237 26.923 22.6387 26.9268 22.6462C27.0861 22.9144 27.1236 23.1225 27.0449 23.2781C26.9136 23.5369 26.4636 23.6644 26.3099 23.6756H23.4974C23.3024 23.6756 22.8936 23.625 22.3986 23.2837C22.018 23.0175 21.643 22.5806 21.2774 22.155C20.7318 21.5212 20.2593 20.9738 19.783 20.9738C19.7225 20.9736 19.6624 20.9831 19.6049 21.0019C19.2449 21.1181 18.7836 21.6319 18.7836 23.0006C18.7836 23.4281 18.4461 23.6737 18.208 23.6737H16.9199C16.4811 23.6737 14.1955 23.52 12.1705 21.3844C9.69175 18.7687 7.4605 13.5225 7.44175 13.4737C7.30113 13.1344 7.59175 12.9525 7.90863 12.9525H10.7493C11.128 12.9525 11.2518 13.1831 11.338 13.3875C11.4393 13.6256 11.8105 14.5725 12.4199 15.6375C13.408 17.3737 14.0136 18.0787 14.4993 18.0787C14.5903 18.0777 14.6797 18.0545 14.7599 18.0112C15.3936 17.6587 15.2755 15.3994 15.2474 14.9306C15.2474 14.8425 15.2455 13.92 14.9211 13.4775C14.6886 13.1569 14.293 13.035 14.053 12.99C14.1501 12.856 14.2781 12.7473 14.4261 12.6731C14.8611 12.4556 15.6449 12.4237 16.423 12.4237H16.8561C17.6999 12.435 17.9174 12.4894 18.223 12.5662C18.8418 12.7144 18.8549 13.1137 18.8005 14.4806C18.7836 14.8687 18.7668 15.3075 18.7668 15.825C18.7668 15.9375 18.7611 16.0575 18.7611 16.185C18.7424 16.8806 18.7199 17.67 19.2111 17.9944C19.2752 18.0346 19.3492 18.056 19.4249 18.0562C19.5955 18.0562 20.1093 18.0562 21.5005 15.6694C21.9296 14.9011 22.3024 14.1028 22.6161 13.2806C22.6443 13.2319 22.7268 13.0819 22.8243 13.0237C22.8962 12.9871 22.976 12.9684 23.0568 12.9694H26.3961C26.7599 12.9694 27.0093 13.0237 27.0561 13.1644C27.1386 13.3875 27.0411 14.0681 25.5168 16.1325L24.8361 17.0306C23.4543 18.8419 23.4543 18.9338 24.9224 20.3081Z" fill="#FF7020"/>
</g>
<g clip-path="url(#clip1_0_249)">
<path d="M87.9999 18C87.9999 22.7739 86.1035 27.3523 82.7278 30.7279C79.3521 34.1036 74.7738 36 69.9999 36C65.226 36 60.6476 34.1036 57.272 30.7279C53.8963 27.3523 51.9999 22.7739 51.9999 18C51.9999 13.2261 53.8963 8.64773 57.272 5.27208C60.6476 1.89642 65.226 0 69.9999 0C74.7738 0 79.3521 1.89642 82.7278 5.27208C86.1035 8.64773 87.9999 13.2261 87.9999 18ZM70.6456 13.2885C68.8951 14.0175 65.3941 15.525 60.1471 17.811C59.2966 18.1485 58.8489 18.4815 58.8084 18.8055C58.7409 19.3522 59.4271 19.5683 60.3609 19.863L60.7546 19.9868C61.6726 20.286 62.9101 20.6348 63.5514 20.6483C64.1364 20.6618 64.7866 20.4233 65.5044 19.9283C70.4071 16.6185 72.9384 14.9467 73.0959 14.9107C73.2084 14.8837 73.3659 14.8523 73.4694 14.9468C73.5751 15.039 73.5639 15.2168 73.5526 15.264C73.4851 15.5542 70.7919 18.0562 69.3991 19.3522C68.9649 19.7572 68.6566 20.043 68.5936 20.1082C68.4549 20.25 68.3139 20.3895 68.1706 20.5268C67.3156 21.3503 66.6766 21.9668 68.2044 22.9748C68.9401 23.4608 69.5296 23.859 70.1169 24.2595C70.7559 24.696 71.3949 25.1303 72.2229 25.6748C72.4321 25.8098 72.6346 25.956 72.8304 26.0955C73.5751 26.6265 74.2479 27.1035 75.0736 27.027C75.5551 26.982 76.0524 26.532 76.3044 25.182C76.9006 21.9938 78.0729 15.0885 78.3429 12.2423C78.3594 12.0056 78.3495 11.7679 78.3136 11.5335C78.2924 11.3443 78.2009 11.17 78.0571 11.0452C77.8524 10.9039 77.6083 10.8307 77.3596 10.836C76.6846 10.8472 75.6429 11.2095 70.6456 13.2885Z" fill="#FF7020"/>
</g>
<defs>
<clipPath id="clip0_0_249">
<rect width="36" height="36" fill="white"/>
</clipPath>
<clipPath id="clip1_0_249">
<rect width="36" height="36" fill="white" transform="translate(52)"/>
</clipPath>
</defs>
</svg>
